<svg xmlns="http://www.w3.org/2000/svg" viewBox="0 0 64 64" width="64" height="64" role="img" aria-label="SmartPark KE">
  <title>SmartPark KE</title>
  <defs>
    <linearGradient id="spAmber" x1="0" y1="0" x2="1" y2="1">
      <stop offset="0" stop-color="#F7BE5C"/>
      <stop offset="0.55" stop-color="#F2A93B"/>
      <stop offset="1" stop-color="#D98F27"/>
    </linearGradient>
    <linearGradient id="spGloss" x1="0" y1="0" x2="0" y2="1">
      <stop offset="0" stop-color="#FFFFFF" stop-opacity="0.34"/>
      <stop offset="1" stop-color="#FFFFFF" stop-opacity="0"/>
    </linearGradient>
    <pattern id="spHazard" width="12" height="10" patternUnits="userSpaceOnUse" patternTransform="rotate(30)">
      <rect width="12" height="10" fill="#0B0F16"/>
      <rect width="5.5" height="10" fill="#F2A93B"/>
    </pattern>
    <clipPath id="spBadge"><rect width="64" height="64" rx="16"/></clipPath>
  </defs>
  <g clip-path="url(#spBadge)">
    <rect width="64" height="64" fill="url(#spAmber)"/>
    <rect y="50" width="64" height="14" fill="url(#spHazard)"/>
    <rect width="64" height="26" fill="url(#spGloss)"/>
    <path fill="#0B0F16" fill-rule="evenodd"
          d="M17 10h11.9c7 0 12 4.7 12 11.5S35.9 33 28.9 33H26v13h-9V10Zm9.2 6.7v9.6h2.3c3.2 0 5.3-1.9 5.3-4.8 0-2.9-2.1-4.8-5.3-4.8h-2.3Z"/>
  </g>
</svg>